<svg xmlns="http://www.w3.org/2000/svg" xmlns:svg="http://www.w3.org/2000/svg" xmlns:xlink="http://www.w3.org/1999/xlink" id="svg2" width="48" height="48" version="1.1"><defs id="defs5455"><linearGradient id="linearGradient4406"><stop style="stop-color:#2a3561;stop-opacity:1" id="stop4408" offset="0"/><stop style="stop-color:#192656;stop-opacity:1" id="stop4410" offset="1"/></linearGradient><linearGradient id="linearGradient4262"><stop id="stop4264" offset="0" style="stop-color:#fff;stop-opacity:.573"/><stop id="stop4266" offset="1" style="stop-color:#fff;stop-opacity:0"/></linearGradient><linearGradient id="linearGradient4256"><stop id="stop4258" style="stop-color:#3e5172;stop-opacity:1"/><stop id="stop4260" style="stop-color:#6f7da0;stop-opacity:1" offset="1"/></linearGradient><linearGradient id="linearGradient4250"><stop id="stop4252" style="stop-color:#000;stop-opacity:1"/><stop id="stop4254" style="stop-color:#655c6f;stop-opacity:0" offset="1"/></linearGradient><linearGradient id="linearGradient4244"><stop id="stop4246" offset="0" style="stop-color:#464a88;stop-opacity:1"/><stop id="stop4248" offset="1" style="stop-color:#5272a2;stop-opacity:.42745098"/></linearGradient><linearGradient id="linearGradient4238"><stop id="stop4240" offset="0" style="stop-color:#0b084e;stop-opacity:1"/><stop id="stop4242" offset="1" style="stop-color:#e88f21;stop-opacity:0"/></linearGradient><linearGradient id="linearGradient4232"><stop id="stop4234" style="stop-color:#1d1d5b;stop-opacity:1"/><stop id="stop4236" style="stop-color:#1f4778;stop-opacity:1" offset="1"/></linearGradient><linearGradient id="linearGradient4351-5"><stop style="stop-color:#fddda3" id="stop4353-1"/><stop offset="1" style="stop-color:#fde3a7" id="stop4355-8"/></linearGradient><style id="current-color-scheme" type="text/css"/><linearGradient id="linearGradient3397" x1="406.571" x2="429.121" y1="538.798" y2="507.52" gradientTransform="matrix(-1.9156641,0,0,1.3137529,1208.3892,-162.86832)" gradientUnits="userSpaceOnUse" xlink:href="#linearGradient4232"/><linearGradient id="linearGradient3399" x1="433.321" x2="382.571" y1="-516.298" y2="-498.048" gradientTransform="matrix(1.0225549,0,0,0.96509258,-9.3356131,-16.786636)" gradientUnits="userSpaceOnUse" xlink:href="#linearGradient4244"/><linearGradient id="linearGradient3401" x1="46" x2="45.75" y1="61.25" y2="49.25" gradientTransform="matrix(-0.99512269,0,0,1.0108212,441.88271,482.55462)" gradientUnits="userSpaceOnUse" xlink:href="#linearGradient4256"/><linearGradient id="linearGradient3403" x1="52.625" x2="41.375" y1="23.375" y2="13.25" gradientTransform="matrix(-1.0536163,0,0,-1.0215439,459.0362,561.64512)" gradientUnits="userSpaceOnUse" xlink:href="#linearGradient4250"/><linearGradient id="linearGradient3405" x1="393.571" x2="439.571" y1="-504.798" y2="-504.798" gradientTransform="matrix(1.0221298,0,0,1.0536163,-9.1579492,27.811433)" gradientUnits="userSpaceOnUse" xlink:href="#linearGradient4262"/><linearGradient id="linearGradient3407" x1="394.571" x2="435.571" y1="-511.798" y2="-511.798" gradientTransform="matrix(1.022297,0,0,1.0536163,-9.2259043,28.40596)" gradientUnits="userSpaceOnUse" xlink:href="#linearGradient4238"/><linearGradient id="linearGradient4412" x1="393.738" x2="393.571" y1="548.893" y2="525.048" gradientUnits="userSpaceOnUse" xlink:href="#linearGradient4406"/></defs><metadata id="metadata5458"/><g id="layer1" transform="matrix(1 0 0 1 -384.57143 -499.798)"><path style="color:#000;display:none;overflow:visible;visibility:visible;opacity:1;fill:url(#linearGradient4412);fill-opacity:1;fill-rule:nonzero;stroke:none;stroke-width:1;stroke-linecap:round;stroke-linejoin:round;stroke-miterlimit:4;stroke-dasharray:none;stroke-opacity:1;marker:none;enable-background:accumulate" id="path3379" d="m 400.57143,543.798 h -12 l 4e-5,-12 12.99996,-1 z"/><path id="path3381" d="m 429.53495,502.83448 v 42.14465 h -29.50121 l -12.6434,-12.6434 v -29.50125 z" style="color:#000;display:inline;overflow:visible;visibility:visible;opacity:1;fill:url(#linearGradient3397);fill-opacity:1;fill-rule:nonzero;stroke:#3f467b;stroke-width:1.26434;stroke-linecap:round;stroke-linejoin:round;stroke-miterlimit:4;stroke-dasharray:none;stroke-opacity:1;marker:none;enable-background:accumulate"/><rect id="rect3383" width="40.902" height="6.756" x="388" y="-509.754" transform="scale(1,-1)" style="color:#4d4d4d;clip-rule:nonzero;display:inline;overflow:visible;visibility:visible;opacity:1;isolation:auto;mix-blend-mode:normal;color-interpolation:sRGB;color-interpolation-filters:linearRGB;solid-color:#000;solid-opacity:1;fill:url(#linearGradient3399);fill-opacity:1;fill-rule:nonzero;stroke:none;stroke-width:.993409;stroke-linecap:square;stroke-linejoin:miter;stroke-miterlimit:4;stroke-dasharray:none;stroke-dashoffset:0;stroke-opacity:1;color-rendering:auto;image-rendering:auto;shape-rendering:auto;text-rendering:auto;enable-background:accumulate"/><path style="color:#4d4d4d;clip-rule:nonzero;display:none;overflow:visible;visibility:visible;opacity:.39;isolation:auto;mix-blend-mode:normal;color-interpolation:sRGB;color-interpolation-filters:linearRGB;solid-color:#000;solid-opacity:1;fill:#c2edff;fill-opacity:1;fill-rule:nonzero;stroke:none;stroke-width:1;stroke-linecap:butt;stroke-linejoin:miter;stroke-miterlimit:4;stroke-dasharray:none;stroke-dashoffset:0;stroke-opacity:1;color-rendering:auto;image-rendering:auto;shape-rendering:auto;text-rendering:auto;enable-background:accumulate" id="path4225" d="m 408.41058,515.9245 a 6.2216068,6.2216068 0 0 0 -6.22161,6.2216 6.2216068,6.2216068 0 0 0 0.0712,0.89054 4.4440049,4.4440049 0 0 0 -0.0712,-0.002 4.4440049,4.4440049 0 0 0 -4.444,4.44401 4.4440049,4.4440049 0 0 0 4.444,4.444 h 11.55442 a 5.3328058,5.3328058 0 0 0 5.3328,-5.33281 5.3328058,5.3328058 0 0 0 -4.50476,-5.26337 6.2216068,6.2216068 0 0 0 -6.16085,-5.40224 z m 0,0.8888 a 5.3328058,5.3328058 0 0 1 0.53294,0.026 5.3328058,5.3328058 0 0 1 2.47718,0.90616 5.3328058,5.3328058 0 0 1 0.002,0 5.3328058,5.3328058 0 0 1 1.16482,1.08496 5.3328058,5.3328058 0 0 1 0,0.002 5.3328058,5.3328058 0 0 1 1.07975,2.42858 5.3328058,5.3328058 0 0 1 0.0763,0.88528 4.4440049,4.4440049 0 0 1 0.88532,0.0885 4.4440049,4.4440049 0 0 1 0.42879,0.10937 4.4440049,4.4440049 0 0 1 0.002,0 4.4440049,4.4440049 0 0 1 0.41489,0.15275 4.4440049,4.4440049 0 0 1 0.002,0 4.4440049,4.4440049 0 0 1 0.39754,0.1927 4.4440049,4.4440049 0 0 1 0.004,0.002 4.4440049,4.4440049 0 0 1 0.37496,0.23088 4.4440049,4.4440049 0 0 1 0.004,0.002 4.4440049,4.4440049 0 0 1 0.35066,0.26734 4.4440049,4.4440049 0 0 1 0.002,0.002 4.4440049,4.4440049 0 0 1 0.3229,0.30031 4.4440049,4.4440049 0 0 1 0.002,0.002 4.4440049,4.4440049 0 0 1 0.5503,0.69438 4.4440049,4.4440049 0 0 1 0.002,0.002 4.4440049,4.4440049 0 0 1 0.21873,0.38365 4.4440049,4.4440049 0 0 1 0.002,0.002 4.4440049,4.4440049 0 0 1 0.18054,0.40274 4.4440049,4.4440049 0 0 1 0.002,0.002 4.4440049,4.4440049 0 0 1 0.13887,0.42011 4.4440049,4.4440049 0 0 1 0,0.002 4.4440049,4.4440049 0 0 1 0.0972,0.43225 4.4440049,4.4440049 0 0 1 0,0.002 4.4440049,4.4440049 0 0 1 0.0538,0.43919 4.4440049,4.4440049 0 0 1 0.0101,0.31383 4.4440049,4.4440049 0 0 1 -4.444,4.444 h -11.55441 a 3.5552039,3.5552039 0 0 1 -3.55521,-3.5552 3.5552039,3.5552039 0 0 1 0.0173,-0.35413 3.5552039,3.5552039 0 0 1 3.53785,-3.20107 3.5552039,3.5552039 0 0 1 0.2656,0.0122 3.5552039,3.5552039 0 0 1 0,0.002 3.5552039,3.5552039 0 0 1 1.02768,0.23262 5.3328058,5.3328058 0 0 1 -0.3038,-1.019 5.3328058,5.3328058 0 0 1 -0.0659,-0.45135 5.3328058,5.3328058 0 0 1 -0.0122,-0.10241 5.3328058,5.3328058 0 0 1 -0.0226,-0.45139 5.3328058,5.3328058 0 0 1 0.026,-0.53293 5.3328058,5.3328058 0 0 1 5.30676,-4.79987 z"/><path style="opacity:.418268;fill:#9ae3ff;fill-opacity:1;stroke-width:1.33984" id="path4225-3" d="m 408.88927,514.28936 c -4.69487,0 -8.51371,3.65911 -8.51371,8.1707 0,0.40657 0.0274,0.76067 0.0958,1.16725 -0.0274,0 -0.0684,0 -0.0958,-0.0131 -3.35351,0 -6.09103,2.62302 -6.09103,5.83622 0,3.21321 2.73752,5.82311 6.09103,5.82311 h 15.80923 c 4.03784,0 7.3092,-3.13452 7.3092,-6.99035 -0.0136,-3.47551 -2.58698,-6.36084 -6.17313,-6.89855 -0.5612,-4.09191 -4.13367,-7.08216 -8.43159,-7.09526 z m 0.4243,3.12138 c 0.98552,-0.0131 6.24158,0.81314 4.79068,6.61004 -0.0136,0.0262 0.41065,-0.10494 0.43803,-0.10494 4.61274,-0.22296 5.54348,7.80349 1.09499,7.85594 h -14.50891 c -2.06683,0 -3.33979,-1.61315 -2.81966,-3.67223 0.4517,-1.80986 1.31402,-2.63612 4.4485,-2.67547 0,0 0,0 0,0 0.54749,0.0654 1.01287,0.22294 1.51932,0.51149 -3.17554,-8.02646 4.81805,-8.52483 5.03705,-8.52483 z"/><path id="path3387" d="m 388.14609,532.08489 11.94146,12.12986 v -12.12986 z" style="fill:url(#linearGradient3401);fill-rule:evenodd;stroke-width:1.00294"/><path id="path3389" d="M 412.67709,544.2789 400.0337,532.02037 v 12.25853 z" style="opacity:.2;fill:url(#linearGradient3403);fill-rule:evenodd;stroke-width:1.03745"/><rect style="color:#4d4d4d;clip-rule:nonzero;display:inline;overflow:visible;visibility:visible;opacity:.256;isolation:auto;mix-blend-mode:normal;color-interpolation:sRGB;color-interpolation-filters:linearRGB;solid-color:#000;solid-opacity:1;fill:url(#linearGradient3405);fill-opacity:1;fill-rule:nonzero;stroke:none;stroke-width:1.03776;stroke-linecap:square;stroke-linejoin:miter;stroke-miterlimit:4;stroke-dasharray:none;stroke-dashoffset:0;stroke-opacity:1;color-rendering:auto;image-rendering:auto;shape-rendering:auto;text-rendering:auto;enable-background:accumulate" id="rect3391" width="40.885" height="1.054" x="388.013" y="-504.052" transform="scale(1,-1)"/><rect id="rect3393" width="40.892" height="1.054" x="388.01" y="-510.833" transform="scale(1,-1)" style="color:#4d4d4d;clip-rule:nonzero;display:inline;overflow:visible;visibility:visible;opacity:.144;isolation:auto;mix-blend-mode:normal;color-interpolation:sRGB;color-interpolation-filters:linearRGB;solid-color:#000;solid-opacity:1;fill:url(#linearGradient3407);fill-opacity:1;fill-rule:nonzero;stroke:none;stroke-width:1.03784;stroke-linecap:square;stroke-linejoin:miter;stroke-miterlimit:4;stroke-dasharray:none;stroke-dashoffset:0;stroke-opacity:1;color-rendering:auto;image-rendering:auto;shape-rendering:auto;text-rendering:auto;enable-background:accumulate"/><rect id="rect4035" width="0" height="15.455" x="321.415" y="429.731" style="fill:#4d4d4d;stroke-width:1.05362"/><rect id="rect4035-8" width="0" height="15.455" x="328.748" y="453.512" style="fill:#4d4d4d;stroke-width:1.05362"/><rect id="rect4035-0" width="0" height="15.455" x="330.659" y="452.394" style="fill:#4d4d4d;stroke-width:1.05362"/><rect id="rect4035-06" width="0" height="15.455" x="303.339" y="425.747" style="fill:#4d4d4d;stroke-width:1.05362"/><rect id="rect4035-8-7" width="0" height="15.455" x="310.672" y="449.528" style="fill:#4d4d4d;stroke-width:1.05362"/><rect id="rect4035-0-42" width="0" height="15.455" x="312.583" y="448.41" style="fill:#4d4d4d;stroke-width:1.05362"/><rect id="rect4035-3" width="0" height="15.455" x="303.339" y="425.747" style="fill:#4d4d4d;stroke-width:1.05362"/><rect id="rect4035-8-9" width="0" height="15.455" x="310.672" y="449.528" style="fill:#4d4d4d;stroke-width:1.05362"/><rect id="rect4035-0-4" width="0" height="15.455" x="312.583" y="448.41" style="fill:#4d4d4d;stroke-width:1.05362"/><rect id="rect4035-2" width="0" height="15.455" x="303.339" y="425.747" style="fill:#4d4d4d;stroke-width:1.05362"/><rect id="rect4035-8-99" width="0" height="15.455" x="310.672" y="449.528" style="fill:#4d4d4d;stroke-width:1.05362"/><rect id="rect4035-0-43" width="0" height="15.455" x="312.583" y="448.41" style="fill:#4d4d4d;stroke-width:1.05362"/><rect id="rect4035-3-9" width="0" height="15.455" x="303.339" y="425.747" style="fill:#4d4d4d;stroke-width:1.05362"/><rect id="rect4035-8-9-9" width="0" height="15.455" x="310.672" y="449.528" style="fill:#4d4d4d;stroke-width:1.05362"/><rect id="rect4035-0-4-4" width="0" height="15.455" x="312.583" y="448.41" style="fill:#4d4d4d;stroke-width:1.05362"/><rect id="rect4035-5" width="0" height="11.59" x="377.376" y="448.178" style="fill:#4d4d4d;stroke-width:1.05362"/><rect id="rect4035-7" width="0" height="11.59" x="372.58" y="450.832" style="fill:#4d4d4d;stroke-width:1.05362"/><rect id="rect4035-9" width="0" height="11.59" x="367.831" y="437.748" style="fill:#4d4d4d;stroke-width:1.05362"/><rect id="rect4035-96" width="0" height="11.59" x="368.72" y="450.641" style="fill:#4d4d4d;stroke-width:1.05362"/><rect id="rect4035-7-0" width="0" height="11.59" x="363.924" y="453.295" style="fill:#4d4d4d;stroke-width:1.05362"/><rect id="rect4035-9-6" width="0" height="11.59" x="359.175" y="440.211" style="fill:#4d4d4d;stroke-width:1.05362"/><rect id="rect4035-1" width="0" height="11.59" x="377.376" y="448.178" style="fill:#4d4d4d;stroke-width:1.05362"/><rect id="rect4035-7-2" width="0" height="11.59" x="372.58" y="450.832" style="fill:#4d4d4d;stroke-width:1.05362"/><rect id="rect4035-9-0" width="0" height="11.59" x="367.831" y="437.748" style="fill:#4d4d4d;stroke-width:1.05362"/><rect id="rect4035-96-9" width="0" height="11.59" x="368.72" y="450.641" style="fill:#4d4d4d;stroke-width:1.05362"/><rect id="rect4035-7-0-9" width="0" height="11.59" x="363.924" y="453.295" style="fill:#4d4d4d;stroke-width:1.05362"/><rect id="rect4035-9-6-9" width="0" height="11.59" x="359.175" y="440.211" style="fill:#4d4d4d;stroke-width:1.05362"/></g></svg>